<?xml version="1.0" standalone="no"?>
<!DOCTYPE svg PUBLIC "-//W3C//DTD SVG 20010904//EN"
 "http://www.w3.org/TR/2001/REC-SVG-20010904/DTD/svg10.dtd">
<svg version="1.0" xmlns="http://www.w3.org/2000/svg"
 width="450.000000pt" height="450.000000pt" viewBox="0 0 450.000000 450.000000"
 preserveAspectRatio="xMidYMid meet">

<g transform="translate(0.000000,450.000000) scale(0.100000,-0.100000)"
fill="#000000" stroke="none">
<path d="M1987 4485 c-249 -30 -495 -103 -722 -215 -459 -225 -810 -576 -1035
-1035 -424 -865 -250 -1897 435 -2580 178 -178 385 -324 615 -434 865 -413
1887 -236 2565 444 178 178 324 385 434 615 488 1022 144 2239 -809 2860 -126
82 -347 189 -492 239 -309 106 -672 144 -991 106z m-807 -1740 l0 -105 -110 0
-110 0 0 105 0 105 110 0 110 0 0 -105z m410 -5 l0 -110 -110 0 -110 0 0 110
0 110 110 0 110 0 0 -110z m410 0 l0 -110 -110 0 -110 0 0 110 0 110 110 0
110 0 0 -110z m400 0 l0 -110 -110 0 -110 0 0 110 0 110 110 0 110 0 0 -110z
m410 0 l0 -110 -110 0 -110 0 0 110 0 110 110 0 110 0 0 -110z m485 77 c148
-69 222 -214 195 -384 -16 -99 -80 -201 -142 -226 -10 -4 -8 -9 7 -18 49 -31
117 -106 142 -158 25 -51 28 -66 28 -166 0 -99 -3 -116 -28 -169 -37 -80 -84
-135 -149 -174 -89 -53 -156 -62 -476 -62 l-283 0 4 323 c3 177 5 327 6 332 0
6 -2 85 -5 178 l-6 167 117 0 117 0 -3 -82 -3 -83 164 0 c147 0 169 2 205 21
58 29 87 90 83 169 -7 114 -71 164 -210 165 l-78 0 0 101 0 101 128 -4 c113
-3 134 -7 187 -31z m-1705 -467 l0 -110 -110 0 -110 0 0 110 0 110 110 0 110
0 0 -110z m410 0 l0 -110 -110 0 -110 0 0 110 0 110 110 0 110 0 0 -110z m400
0 l0 -110 -110 0 -110 0 0 110 0 110 110 0 110 0 0 -110z m-400 -390 l0 -110
-110 0 -110 0 0 110 0 110 110 0 110 0 0 -110z m400 0 l0 -110 -110 0 -110 0
0 110 0 110 110 0 110 0 0 -110z m0 -390 l0 -110 -110 0 -110 0 0 110 0 110
110 0 110 0 0 -110z"/>
<path d="M2640 2120 c0 -6 7 -10 15 -10 8 0 15 2 15 4 0 2 -7 6 -15 10 -8 3
-15 1 -15 -4z"/>
<path d="M3325 2120 c-3 -5 1 -10 10 -10 9 0 13 5 10 10 -3 6 -8 10 -10 10 -2
0 -7 -4 -10 -10z"/>
<path d="M2810 2018 c0 -40 3 -138 7 -217 l6 -144 161 5 c180 5 235 20 273 74
65 93 57 231 -18 299 -52 47 -91 55 -271 55 l-158 0 0 -72z"/>
</g>
</svg>
