<svg width="335" height="317" viewBox="0 0 335 317" fill="none" xmlns="http://www.w3.org/2000/svg">
<g id="Group 328">
<circle id="Ellipse 39" opacity="0.14" cx="138.888" cy="178.112" r="138.888" fill="white"/>
<g id="Group 1">
<path id="Vector" d="M249.648 118.077L240.569 124.773C253.781 149.652 257.295 178.499 250.438 205.792C243.581 233.085 226.835 256.907 203.404 272.699C179.974 288.491 151.505 295.143 123.446 291.383C95.3867 287.624 69.7087 273.715 51.3262 252.32C32.9436 230.925 23.1476 203.547 23.8131 175.424C24.4786 147.301 35.5587 120.41 54.933 99.8973C74.3072 79.3844 100.615 66.6903 128.821 64.2447C157.026 61.799 185.149 69.7736 207.807 86.6421L215.015 78.1325C190.226 59.6566 159.437 50.9397 128.57 53.6587C97.703 56.3777 68.9378 70.3406 47.8078 92.8613C26.6778 115.382 14.6754 144.87 14.1093 175.653C13.5432 206.436 24.4534 236.34 44.7413 259.613C65.0291 282.886 93.2617 297.883 124.008 301.721C154.755 305.558 185.844 297.965 211.295 280.401C236.746 262.837 254.762 236.543 261.876 206.577C268.991 176.611 264.703 145.09 249.836 118.077H249.648ZM241.552 105.382C237.097 99.177 232.084 93.3872 226.575 88.0836L218.993 96.2677C224.171 101.181 228.872 106.568 233.034 112.357L241.552 105.382Z" fill="#FFB800"/>
<path id="Vector_2" d="M212.3 245.581C210.475 247.395 208.603 249.115 206.637 250.789C204.672 252.463 203.782 253.207 202.285 254.323C200.075 255.993 197.779 257.545 195.405 258.973C193.72 260.089 191.988 261.112 190.163 262.135C187.401 263.67 184.546 265.111 181.598 266.413C179.445 267.39 177.245 268.227 175.046 269.017C171.054 270.455 166.974 271.635 162.83 272.551C155.579 274.164 148.17 274.975 140.739 274.969C136.687 274.981 132.638 274.732 128.617 274.225C119.942 273.216 111.442 271.058 103.344 267.808C88.0119 261.662 74.409 251.913 63.7022 239.396C61.6429 236.978 59.724 234.514 57.8987 231.956C54.7287 227.394 51.9274 222.589 49.521 217.588C47.8895 214.189 46.4672 210.695 45.262 207.125C43.9393 203.523 42.8451 199.842 41.9858 196.104C41.2751 193.037 40.7438 189.932 40.3946 186.804C39.9091 182.839 39.6591 178.848 39.6457 174.854C39.6457 173.691 39.6457 172.482 39.6457 171.319C39.6602 168.91 39.8165 166.503 40.1137 164.112C40.1137 162.484 40.4882 160.857 40.7222 159.462C40.9562 158.067 41.5646 154.812 42.0794 152.673C42.5942 150.534 42.7347 149.79 43.1559 148.348C43.7643 146.116 44.4663 143.931 45.262 141.745C45.6917 140.403 46.1916 139.083 46.7597 137.793C47.6021 135.561 48.585 133.421 49.5678 131.329C47.3213 130.771 44.8876 130.259 42.6411 129.794C41.5898 131.914 40.6525 134.087 39.8329 136.305L38.4288 140.025C37.68 142.21 37.0248 144.396 36.3695 146.628C35.9951 147.976 35.6207 149.325 35.3399 150.673C34.825 152.952 34.357 155.323 33.9826 157.462C33.7018 158.95 33.5146 160.438 33.3274 162.112C33.0465 164.437 32.8593 166.762 32.7189 169.134C32.5785 171.506 32.7189 173.18 32.7189 175.226C32.7189 177.272 32.7189 179.876 32.7189 181.968C32.7189 185.084 33.2338 188.199 33.7018 191.268C35.8866 205.636 40.9816 219.415 48.6786 231.77C50.3167 234.374 52.0952 236.885 53.9205 239.35C62.5263 250.836 73.3565 260.496 85.7744 267.763C98.1923 275.03 111.947 279.757 126.23 281.666C130.884 282.293 135.575 282.604 140.271 282.596C142.892 282.596 145.373 282.596 147.9 282.317C156.918 281.71 165.82 279.96 174.39 277.108C177.666 275.992 180.849 274.783 183.985 273.435C186.044 272.505 188.01 271.528 190.022 270.552C192.035 269.575 195.077 267.762 197.511 266.227C199.242 265.204 200.927 264.042 202.565 262.926C204.204 261.81 206.824 259.764 208.837 258.276C210.849 256.788 211.739 255.858 213.143 254.556C214.547 253.254 216.793 251.115 218.478 249.348C216.747 247.534 214.5 246.511 212.3 245.581Z" fill="#FFB800"/>
<path id="Vector_3" d="M218.992 248.65C217.308 250.417 215.529 252.184 213.657 253.858C211.27 252.742 208.977 251.673 206.637 250.789C199.808 248.05 192.803 245.766 185.669 243.954L177.993 242.047L173.313 240.978H172.377L164.748 239.21C153.73 237.156 143.231 232.952 133.859 226.841C124.884 220.344 118.175 211.224 114.669 200.754L113.546 197.964C112.938 196.523 112.376 195.081 111.768 193.593C111.768 193.314 111.768 192.989 111.393 192.71C110.504 190.571 109.568 188.432 108.492 186.153C103.616 176.017 97.3121 166.623 89.7705 158.253C81.0184 148.348 65.246 141.838 47.0866 137.56C44.7933 137.002 42.4063 136.537 40.1598 136.072C40.9794 133.854 41.9167 131.681 42.968 129.562C45.3081 130.027 47.6482 130.539 49.8947 131.097C68.6158 135.747 85.4179 142.861 95.0124 153.649C103.577 163.07 110.648 173.733 115.98 185.27C117.056 187.641 118.039 189.92 118.882 192.059L119.724 194.105C119.724 194.477 120.052 194.849 120.192 195.267C121.128 197.592 122.018 199.917 122.954 201.87C126.002 209.637 131.294 216.335 138.164 221.122C144.767 225.531 152.104 228.742 159.834 230.608C162.923 231.491 166.106 232.235 169.194 233.026L173.454 234.002L174.858 234.328L183.142 236.281C192.952 238.573 202.549 241.684 211.832 245.581C214.499 246.511 216.746 247.534 218.992 248.65Z" fill="#FFB800"/>
<path id="Vector_4" d="M209.351 257.579C207.339 259.206 205.233 260.834 203.08 262.229C200.506 261.02 197.931 259.95 195.404 258.974C189.359 256.661 183.187 254.689 176.917 253.068C174.343 252.417 171.769 251.766 169.288 251.208L163.204 249.767C148.321 246.372 135.544 243.443 124.639 235.817C120.386 232.812 116.642 229.155 113.546 224.982C112.958 224.248 112.426 223.471 111.955 222.657C108.873 217.694 106.316 212.426 104.326 206.94C103.531 205.033 102.782 203.08 101.939 201.081C101.097 199.081 100.348 197.407 99.412 195.501C99.2757 195.136 99.1195 194.779 98.944 194.431C98.1015 192.757 97.2123 191.037 96.2294 189.223C91.7293 181.337 86.3778 173.962 80.2697 167.228C72.4069 158.393 58.9278 152.208 43.1553 147.977C40.9556 147.372 38.475 146.814 36.3689 146.256C37.0242 144.024 37.6794 141.606 38.4282 139.653L45.2614 141.374C62.1571 146.024 76.7596 152.813 85.5116 162.671C92.2127 170.111 98.0383 178.286 102.875 187.037C104.092 189.27 105.122 191.362 106.058 193.408C107.181 195.826 108.164 198.058 109.053 200.29C109.615 201.592 110.13 202.894 110.645 204.15C114.904 214.752 117.946 222.378 128.57 230.004C138.305 237.026 150.474 239.816 164.561 243.071L166.574 243.536L174.764 245.442L178.836 246.465L186.278 248.558C191.648 250.17 196.928 252.064 202.097 254.231C204.624 255.3 206.964 256.556 209.351 257.579Z" fill="#FFB800"/>
<path id="Vector_5" d="M198.025 265.855C195.591 267.39 193.064 268.785 190.536 270.18C187.494 268.878 184.546 267.715 181.597 266.739C172.553 263.68 163.332 261.164 153.984 259.206C139.147 255.811 126.37 252.882 115.465 245.023C113.83 243.828 112.268 242.54 110.785 241.163C109.745 240.262 108.76 239.299 107.836 238.28C106.62 237.012 105.494 235.66 104.466 234.235C103.39 232.793 102.454 231.352 101.565 229.91C100.804 228.632 100.117 227.312 99.5054 225.958C98.0545 223.075 96.8376 220.099 95.574 217.03L95.2463 216.146C93.7019 212.333 92.1106 208.334 90.0045 204.056C89.0684 202.103 87.9919 200.01 86.7751 197.871C82.4022 190.236 77.2079 183.095 71.2834 176.574C62.8803 168.132 52.3879 162.038 40.8617 158.904L34.1221 156.904C34.4965 154.626 34.9646 152.254 35.4794 150.115C37.7727 150.72 40.1597 151.417 42.219 152.115C55.1601 155.481 66.9677 162.205 76.4317 171.599C82.9884 178.86 88.703 186.831 93.4679 195.36C94.6847 197.546 95.7612 199.731 96.744 201.777C98.7097 205.869 100.254 209.683 101.424 213.17C102.407 215.588 103.343 217.82 104.326 220.052C105.595 223.126 107.163 226.069 109.006 228.841C109.662 229.724 110.364 230.654 111.112 231.538C111.861 232.421 112.376 232.979 113.031 233.723C114.689 235.388 116.456 236.941 118.32 238.373L119.162 238.978C128.944 246 141.113 248.79 155.201 252.045C159.881 253.114 164.561 254.23 169.85 255.579C172.283 256.183 174.53 256.881 177.245 257.671C181.316 258.927 185.529 260.322 189.788 262.042C192.596 263.298 195.404 264.414 198.025 265.855Z" fill="#FFB800"/>
<path id="Vector_6" d="M184.5 272.876C181.364 274.225 178.181 275.434 174.905 276.55C170.787 275.062 166.762 273.76 162.83 272.69C156.559 270.877 150.521 269.482 144.811 268.04C129.975 264.646 117.198 261.67 106.293 253.811C101.242 250.326 96.9319 245.886 93.6091 240.744C92.1329 238.508 90.8341 236.16 89.7245 233.723C88.414 230.979 87.2908 228.236 86.0739 225.306C86.0861 225.183 86.0861 225.058 86.0739 224.934C85.3719 223.121 84.5762 221.214 83.7338 219.215C82.4233 216.053 80.9256 212.751 79.0535 209.217C74.397 200.626 68.7249 192.618 62.1578 185.362C55.9416 178.958 48.3389 174.044 39.9265 170.994C37.7268 170.064 35.2463 169.273 32.9998 168.436C32.9998 166.111 33.3274 163.786 33.6082 161.414C35.9015 162.158 38.2885 162.949 40.3946 163.786C50.6192 167.245 59.8735 173.061 67.3997 180.759C76.3691 190.582 83.6861 201.777 89.0693 213.914C90.3797 216.89 91.503 219.726 92.5795 222.377L92.9071 223.121C93.5623 224.795 94.1708 226.329 94.8728 227.771C95.7019 229.826 96.6553 231.829 97.7278 233.769L98.9914 236.001C100.033 237.62 101.174 239.173 102.408 240.651C104.783 243.445 107.503 245.929 110.505 248.045C120.24 255.02 132.409 257.857 146.543 261.065C156.23 263.118 165.793 265.71 175.186 268.831C178.135 270.505 181.27 271.481 184.5 272.876Z" fill="#FFB800"/>
<path id="Vector_7" d="M92.7656 223.261C89.6767 222.052 86.6345 220.703 83.4051 219.355C68.9806 212.63 55.0738 204.858 41.7976 196.105C39.0363 194.291 36.3217 192.478 33.7008 190.664C33.2328 187.595 32.9051 184.479 32.7179 181.364L40.3936 186.804C52.7179 195.214 65.5851 202.81 78.9121 209.543C82.1883 211.171 85.5112 212.798 88.9278 214.193C90.2383 217.169 91.3616 220.006 92.438 222.656L92.7656 223.261Z" fill="#FFB800"/>
<path id="Vector_8" d="M98.9908 236.234C95.9018 235.49 92.8596 234.7 89.9111 233.863C86.6349 232.933 83.4991 231.956 80.5505 230.887H80.0825C69.6717 227.333 59.5486 222.996 49.8012 217.913C46.3378 216.1 43.0616 214.286 39.8791 212.426C38.5963 209.012 37.4872 205.535 36.5561 202.01C39.4578 203.87 42.4064 205.683 45.5422 207.45C58.4808 214.952 72.1951 221.048 86.4477 225.632C89.3026 226.562 92.1576 227.399 95.1062 228.19C95.9352 230.245 96.8886 232.248 97.9611 234.188L98.9908 236.234Z" fill="#FFB800"/>
<path id="Vector_9" d="M102.268 240.978C99.3189 240.978 96.4172 240.978 93.609 240.978H85.8866L77.2282 240.652C72.5479 240.42 67.8676 240.141 63.6554 239.815C60.3792 239.815 57.1967 239.35 54.2949 239.071C52.4696 236.607 50.6911 234.096 49.0531 231.492L57.9923 232.375C62.9534 232.794 68.1953 233.166 73.7648 233.491L81.6276 233.863C84.2954 233.863 87.0099 233.863 89.8649 234.142C92.3922 234.142 95.0131 234.142 97.6809 234.142L98.9445 236.374C99.957 237.974 101.067 239.512 102.268 240.978Z" fill="#FFB800"/>
<path id="Vector_10" d="M183.61 236.282L175.326 234.329C170.43 222.571 162.718 212.179 152.86 204.057C143.371 195.957 131.201 191.634 118.694 191.92C117.852 189.781 116.869 187.27 115.793 185.131C123.281 184.578 130.807 185.496 137.938 187.834C145.069 190.172 151.667 193.883 157.353 198.756C169.422 208.619 178.509 221.606 183.61 236.282Z" fill="#FFB800"/>
<path id="Vector_11" d="M169.663 233.026C166.34 232.235 163.157 231.491 160.302 230.608C155.868 223.764 150.425 217.619 144.155 212.38C138.079 207.202 130.84 203.55 123.047 201.731C122.111 199.639 121.222 197.453 120.286 195.128C120.286 194.709 119.958 194.337 119.818 193.965C130.49 195.546 140.49 200.11 148.648 207.125C157.258 214.342 164.392 223.135 169.663 233.026Z" fill="#FFB800"/>
<path id="Vector_12" d="M148.368 281.758C145.841 281.758 143.36 282.037 140.739 282.037C136.043 282.046 131.352 281.735 126.698 281.107C118.477 277.504 110.638 273.096 103.297 267.948C92.8235 260.598 83.9558 251.218 77.228 240.373L85.8865 240.698C96.8543 255.467 111.566 267.084 128.524 274.365C134.957 277.285 141.588 279.756 148.368 281.758Z" fill="#FFB800"/>
<path id="Vector_13" d="M135.263 181.317L130.255 176.667L276.467 3.73148C277.163 2.87766 278.03 2.17652 279.013 1.67229C279.995 1.16807 281.073 0.871719 282.176 0.801936C283.281 0.705358 284.395 0.83279 285.449 1.1765C286.503 1.52022 287.475 2.07305 288.308 2.80146C289.136 3.53068 289.81 4.41568 290.292 5.40536C290.774 6.39505 291.054 7.46979 291.116 8.56754C291.193 9.69293 291.037 10.822 290.659 11.8856C290.281 12.9491 289.688 13.9246 288.916 14.7521L135.263 181.317Z" fill="#FFB800"/>
<path id="Vector_14" d="M149.023 187.27L144.952 182.155L321.444 39.398C322.298 38.6988 323.286 38.1779 324.347 37.8663C325.409 37.5547 326.522 37.4588 327.622 37.5844C328.722 37.7047 329.786 38.0426 330.753 38.5784C331.719 39.1141 332.567 39.8367 333.248 40.7036C333.928 41.5705 334.427 42.5641 334.715 43.6257C335.003 44.6873 335.074 45.7954 334.923 46.8846C334.772 47.9698 334.404 49.0141 333.842 49.9563C333.279 50.8985 332.533 51.7197 331.647 52.3716L149.023 187.27ZM326.873 42.002L329.166 48.8376L326.873 42.002Z" fill="#FFB800"/>
</g>
</g>
</svg>
